<svg width="120" height="120" viewBox="0 0 120 120" fill="none" xmlns="http://www.w3.org/2000/svg">
  <!-- 背景円 -->
  <circle cx="60" cy="60" r="60" fill="#E5E7EB"/>

  <!-- 顔 -->
  <circle cx="60" cy="45" r="20" fill="#D1D5DB"/>

  <!-- 髪の毛 -->
  <path d="M40 35 C40 25, 50 20, 60 20 C70 20, 80 25, 80 35 L80 45 C80 45, 75 40, 70 40 C65 40, 60 45, 60 45 C60 45, 55 40, 50 40 C45 40, 40 45, 40 45 Z" fill="#6B7280"/>

  <!-- 体 -->
  <path d="M30 90 C30 75, 40 65, 60 65 C80 65, 90 75, 90 90 L90 120 L30 120 Z" fill="#9CA3AF"/>
</svg>
